<?xml version="1.0" ?><svg viewBox="0 0 128 128" xmlns="http://www.w3.org/2000/svg"><defs><style>.cls-1{fill:#c3edf5;}.cls-2{fill:#87dbec;}.cls-3{fill:none;stroke:#4d91bb;stroke-miterlimit:10;stroke-width:8px;}.cls-4{fill:#4dbab4;}</style></defs><title/><g data-name="07 Target Keyword" id="_07_Target_Keyword"><circle class="cls-1" cx="64" cy="64" r="42"/><path class="cls-2" d="M64,106a42,42,0,0,0,42-42A38,38,0,1,1,68,26a38,38,0,0,1,38,38,42,42,0,0,0-83.95-2.17C22,62.55,22,63.27,22,64s0,1.45.05,2.17A42,42,0,0,0,64,106Z"/><circle class="cls-2" cx="68" cy="64" r="18"/><circle class="cls-3" cx="64" cy="64" r="42"/><circle class="cls-4" cx="64" cy="64" r="18"/><line class="cls-3" x1="64" x2="64" y1="12" y2="32"/><line class="cls-3" x1="64" x2="64" y1="96" y2="116"/><line class="cls-3" x1="116" x2="96" y1="64" y2="64"/><line class="cls-3" x1="32" x2="12" y1="64" y2="64"/></g></svg>